HIERARCHY
ROOT Hips
{
    OFFSET 0.000000 0.000000 0.000000
    CHANNELS 6 Xposition Yposition Zposition Zrotation Xrotation Yrotation
    JOINT Spine
    {
        OFFSET -0.000000 14.517291 0.000000
        CHANNELS 3 Zrotation Xrotation Yrotation
        JOINT Spine1
        {
            OFFSET -0.000000 37.558300 0.000000
            CHANNELS 3 Zrotation Xrotation Yrotation
            JOINT Neck
            {
                OFFSET -0.000000 37.404057 3.400369
                CHANNELS 3 Zrotation Xrotation Yrotation
                JOINT Head
                {
                    OFFSET -0.000000 24.785618 -3.540803
                    CHANNELS 3 Zrotation Xrotation Yrotation
                    End Site
                    {
                        OFFSET -0.000000 35.408028 0.000000
                    }
                }
            }
            JOINT LeftShoulder
            {
                OFFSET 6.992933 33.973492 -0.192664
                CHANNELS 3 Zrotation Xrotation Yrotation
                JOINT LeftArm
                {
                    OFFSET 21.527611 0.000000 0.000000
                    CHANNELS 3 Zrotation Xrotation Yrotation
                    JOINT LeftForeArm
                    {
                        OFFSET 56.353916 0.000000 0.000000
                        CHANNELS 3 Zrotation Xrotation Yrotation
                        JOINT LeftHand
                        {
                            OFFSET 47.774071 0.000000 0.000000
                            CHANNELS 3 Zrotation Xrotation Yrotation
                            End Site
                            {
                                OFFSET 26.556021 0.000000 0.000000
                            }
                        }
                    }
                }
            }
            JOINT RightShoulder
            {
                OFFSET -7.065357 33.973492 -0.192664
                CHANNELS 3 Zrotation Xrotation Yrotation
                JOINT RightArm
                {
                    OFFSET -21.527611 0.000000 0.000000
                    CHANNELS 3 Zrotation Xrotation Yrotation
                    JOINT RightForeArm
                    {
                        OFFSET -56.353916 0.000000 0.000000
                        CHANNELS 3 Zrotation Xrotation Yrotation
                        JOINT RightHand
                        {
                            OFFSET -47.774071 0.000000 0.000000
                            CHANNELS 3 Zrotation Xrotation Yrotation
                            End Site
                            {
                                OFFSET -26.556021 0.000000 0.000000
                            }
                        }
                    }
                }
            }
        }
    }
    JOINT LeftUpLeg
    {
        OFFSET 17.704014 0.000000 0.000000
        CHANNELS 3 Zrotation Xrotation Yrotation
        JOINT LeftLeg
        {
            OFFSET -0.000000 -81.181816 0.000000
            CHANNELS 3 Zrotation Xrotation Yrotation
            JOINT LeftFoot
            {
                OFFSET -0.000000 -62.821102 0.000000
                CHANNELS 3 Zrotation Xrotation Yrotation
                JOINT LeftToeBase
                {
                    OFFSET -0.000000 -11.507608 26.556021
                    CHANNELS 3 Zrotation Xrotation Yrotation
                    End Site
                    {
                        OFFSET -0.000000 0.000000 7.081605
                    }
                }
            }
        }
    }
    JOINT RightUpLeg
    {
        OFFSET -17.704014 0.000000 0.000000
        CHANNELS 3 Zrotation Xrotation Yrotation
        JOINT RightLeg
        {
            OFFSET -0.000000 -81.181816 0.000000
            CHANNELS 3 Zrotation Xrotation Yrotation
            JOINT RightFoot
            {
                OFFSET -0.000000 -62.821102 0.000000
                CHANNELS 3 Zrotation Xrotation Yrotation
                JOINT RightToeBase
                {
                    OFFSET -0.000000 -11.507608 26.556021
                    CHANNELS 3 Zrotation Xrotation Yrotation
                    End Site
                    {
                        OFFSET -0.000000 0.000000 7.081605
                    }
                }
            }
        }
    }
}
MOTION
Frames:    11
Frame Time:    0.008333
20.959574    147.381973    47.613014    3.841160    2.596532    -58.026836    3.346925    0.079614    5.008004    2.147738    -3.197163    1.730593    16.650415    -1.731774    17.079359    -13.533843    9.584170    14.278968    9.231383    1.884966    -17.796751    -3.273384    -7.909546    -22.984598    -4.811755    0.282968    -84.777237    -2.824618    -3.417337    -27.620205    -9.098675    3.647647    4.673512    41.838745    12.634298    101.649155    27.383133    -36.019756    109.906151    43.748425    -48.311455    56.027740    35.310333    -22.756910    25.704971    -27.418457    39.597404    3.816128    -2.488101    -12.188268    44.375355    0.000000    0.000000    0.000000    -28.994326    -8.295570    -18.975760    4.111174    31.655241    -7.002137    19.496912    -12.018953    7.135574    0.000000    0.000000    0.000000    
20.932711    147.381287    47.621735    3.838378    2.609008    -58.015163    3.371516    0.090726    5.012523    2.076483    -3.227915    1.730748    16.730612    -1.730915    17.088701    -13.534698    9.615876    14.279149    9.334308    1.911788    -17.778280    -3.307439    -7.923434    -23.035273    -4.793787    0.260807    -84.828560    -2.827801    -3.427580    -27.561384    -9.057086    3.637765    4.705715    41.737759    12.643170    101.671303    27.394705    -36.037788    109.988083    43.754982    -48.376366    56.044300    35.326454    -22.753122    25.693365    -27.429928    39.595524    3.808338    -2.489825    -12.200450    44.374447    0.000000    0.000000    0.000000    -28.980547    -8.279732    -18.965458    4.132734    31.647827    -7.032082    19.488691    -12.022978    7.133220    0.000000    0.000000    0.000000    
20.914312    147.375687    47.629448    3.843422    2.623789    -58.004852    3.376990    0.082345    5.023714    2.081217    -3.228899    1.734555    16.713776    -1.757820    17.088833    -13.505385    9.651659    14.284026    9.320853    1.900930    -17.779072    -3.300145    -7.938219    -23.047977    -4.793341    0.283667    -84.855156    -2.829905    -3.404321    -27.616673    -9.099829    3.592854    4.731401    41.707088    12.674531    101.673157    27.364902    -36.051281    110.015266    43.760818    -48.369473    56.035252    35.344421    -22.764235    25.714777    -27.440020    39.607906    3.825902    -2.469309    -12.196716    44.355686    0.000000    0.000000    0.000000    -28.974150    -8.276892    -18.955065    4.152226    31.649834    -7.058743    19.484770    -12.031616    7.147791    0.000000    0.000000    0.000000    
20.888311    147.371231    47.637249    3.836491    2.633633    -57.989563    3.375125    0.086068    5.033606    2.089566    -3.235862    1.738267    16.712763    -1.794808    17.088203    -13.476809    9.716911    14.287397    9.325837    1.901372    -17.785145    -3.309105    -7.914392    -23.059893    -4.774721    0.235271    -84.920692    -2.842283    -3.440115    -27.521624    -9.129327    3.567551    4.736799    41.663593    12.681447    101.675064    27.330526    -36.077469    110.028160    43.774731    -48.351494    56.039242    35.359039    -22.764532    25.711658    -27.448893    39.612530    3.842532    -2.466270    -12.202579    44.349373    0.000000    0.000000    0.000000    -28.958473    -8.262054    -18.963140    4.141901    31.658598    -7.047300    19.486383    -12.044158    7.138000    0.000000    0.000000    0.000000    
20.866352    147.368271    47.644310    3.834672    2.643799    -57.976467    3.373497    0.091064    5.036674    2.103421    -3.255126    1.740075    16.687332    -1.812230    17.086535    -13.440740    9.765161    14.295094    9.306241    1.902337    -17.773302    -3.313998    -7.901649    -23.071514    -4.756028    0.221069    -84.943268    -2.837369    -3.438371    -27.589306    -9.164887    3.557305    4.750523    41.636089    12.662912    101.675774    27.322350    -36.088062    110.021049    43.824619    -48.316154    56.064880    35.379189    -22.766603    25.693752    -27.482353    39.615177    3.873035    -2.470395    -12.215307    44.326683    0.000000    0.000000    0.000000    -28.945337    -8.248513    -18.964920    4.141551    31.657635    -7.022351    19.489916    -12.066269    7.101340    0.000000    0.000000    0.000000    
20.848604    147.362137    47.654873    3.842004    2.653771    -57.964104    3.380028    0.083653    5.039114    2.091629    -3.264038    1.740631    16.669611    -1.848149    17.082247    -13.388139    9.836580    14.299603    9.295867    1.898439    -17.760250    -3.333794    -7.745010    -23.076715    -4.580805    -0.019609    -85.000595    -2.949260    -3.494539    -27.605717    -9.169025    3.527091    4.760865    41.610321    12.635365    101.647560    27.312347    -36.077827    109.989197    43.854683    -48.253010    56.099228    35.393776    -22.779684    25.690884    -27.510096    39.625240    3.890688    -2.465746    -12.217196    44.333073    0.000000    0.000000    0.000000    -28.943316    -8.245584    -18.958916    4.157323    31.661627    -7.031843    19.494738    -12.080042    7.078026    0.000000    0.000000    0.000000    
20.829279    147.356766    47.669178    3.843593    2.658288    -57.952534    3.372631    0.083690    5.039811    2.109887    -3.283692    1.741746    16.640799    -1.840003    17.076216    -13.365154    9.864568    14.303959    9.263102    1.909123    -17.750669    -3.335976    -7.743117    -23.079092    -4.577221    -0.045615    -85.034966    -2.967172    -3.517550    -27.527758    -9.181813    3.534350    4.755854    41.616524    12.584041    101.636765    27.338614    -36.016758    109.932953    43.888371    -48.185322    56.102917    35.398621    -22.780785    25.675220    -27.529663    39.628773    3.884224    -2.446799    -12.232256    44.345810    0.000000    0.000000    0.000000    -28.939131    -8.232572    -18.950222    4.153061    31.659014    -7.018037    19.510332    -12.092297    7.076637    0.000000    0.000000    0.000000    
20.807903    147.355515    47.681305    3.842610    2.658587    -57.944244    3.347957    0.064429    5.041438    2.182071    -3.258641    1.743715    16.537941    -1.857655    17.060722    -13.299602    9.883157    14.308250    9.149035    1.880909    -17.760523    -3.312553    -7.685676    -23.032784    -4.536863    -0.108874    -85.065826    -3.024834    -3.531013    -27.553183    -9.225805    3.529147    4.751703    41.643757    12.533314    101.622330    27.348536    -35.925426    109.849213    43.833935    -48.115059    56.056236    35.398323    -22.773907    25.667950    -27.535883    39.625793    3.889310    -2.446368    -12.240932    44.339993    0.000000    0.000000    0.000000    -28.933882    -8.214843    -18.945812    4.152675    31.650814    -7.027999    19.501507    -12.095890    7.069780    0.000000    0.000000    0.000000    
20.787910    147.351364    47.696369    3.847923    2.653992    -57.937099    3.330046    0.049268    5.044773    2.199296    -3.249532    1.744964    16.527750    -1.874422    17.056881    -13.304430    9.944889    14.310534    9.123927    1.879371    -17.752155    -3.324500    -7.676848    -23.024569    -4.518901    -0.147760    -85.073692    -3.053852    -3.546529    -27.567392    -9.228008    3.512955    4.742534    41.687595    12.476316    101.572609    27.389812    -35.815235    109.779449    43.815487    -48.047676    56.035900    35.392967    -22.772528    25.671114    -27.536001    39.643581    3.847575    -2.425948    -12.241704    44.364552    0.000000    0.000000    0.000000    -28.941231    -8.203309    -18.931805    4.169308    31.652084    -7.054933    19.485159    -12.116539    7.065523    0.000000    0.000000    0.000000    
20.770103    147.348602    47.708427    3.860981    2.656225    -57.935349    3.310672    0.029397    5.046757    2.219041    -3.253699    1.746073    16.502560    -1.854723    17.043814    -13.294094    9.960309    14.306411    9.107018    1.887467    -17.752798    -3.349414    -7.625939    -22.995462    -4.455618    -0.249223    -85.097542    -3.122885    -3.574480    -27.566870    -9.221071    3.509538    4.733477    41.715820    12.427095    101.534508    27.445919    -35.728001    109.721878    43.784508    -48.025452    56.024487    35.390598    -22.773323    25.686121    -27.529825    39.644188    3.833385    -2.435583    -12.252909    44.358105    0.000000    0.000000    0.000000    -28.941824    -8.202250    -18.948460    4.152349    31.645239    -7.030844    19.507530    -12.127618    7.053015    0.000000    0.000000    0.000000    
20.751360    147.348328    47.726002    3.865466    2.649146    -57.928703    3.294624    0.024296    5.040382    2.232112    -3.259234    1.744389    16.468142    -1.849920    17.034876    -13.273686    9.983239    14.307387    9.087598    1.891489    -17.741207    -3.374582    -7.583217    -22.962124    -4.417310    -0.335344    -85.125122    -3.127287    -3.627639    -27.519360    -9.222749    3.510154    4.727258    41.759621    12.373124    101.492523    27.505562    -35.633446    109.667908    43.792988    -47.979042    56.032745    35.381695    -22.770355    25.686945    -27.537800    39.653072    3.823173    -2.434703    -12.262633    44.364483    0.000000    0.000000    0.000000    -28.947744    -8.188057    -18.952051    4.146904    31.641996    -7.032708    19.499107    -12.140298    7.057122    0.000000    0.000000    0.000000    
